<svg xmlns="http://www.w3.org/2000/svg" width="16" height="16" viewBox="0 0 16 16">
  <g id="Grupo_23" data-name="Grupo 23" transform="translate(-4 -4)">
    <path id="Trazado_9" data-name="Trazado 9" d="M13,17a1,1,0,0,1-.71-.29l-4-4a1,1,0,0,1,0-1.41l4-4A1,1,0,0,1,13.7,8.71L10.41,12l3.29,3.29A1,1,0,0,1,13,17Z" fill="#fff"/>
    <path id="Trazado_10" data-name="Trazado 10" d="M19,13H9a1,1,0,0,1,0-2H19a1,1,0,0,1,0,2ZM5,20a1,1,0,0,1-1-1V5A1,1,0,0,1,6,5V19A1,1,0,0,1,5,20Z" fill="#fff"/>
  </g>
</svg>
