<svg xmlns="http://www.w3.org/2000/svg" width="91.47" height="20.001" viewBox="0 0 91.47 20.001">
  <g id="Grupo_18" data-name="Grupo 18" transform="translate(-388 -132)">
    <path id="Trazado_4" data-name="Trazado 4" d="M10.548-10.53c-.954-1.944-2.988-2.5-4.95-2.5C3.276-13.014.72-11.952.72-9.36.72-6.534,3.1-5.85,5.67-5.544c1.674.18,2.916.666,2.916,1.854,0,1.368-1.4,1.89-2.9,1.89a3.591,3.591,0,0,1-3.546-2L.162-2.772c.936,2.3,2.916,3.1,5.49,3.1,2.808,0,5.292-1.206,5.292-4.014C10.944-6.7,8.5-7.38,5.868-7.7,4.356-7.884,3.06-8.19,3.06-9.288c0-.936.846-1.674,2.61-1.674a3.611,3.611,0,0,1,2.988,1.4ZM12.8-12.6V0h2.2V-4.536a2.275,2.275,0,0,1,2.2-2.43c1.17,0,2.016.684,2.016,2.3V0h2.2V-4.68C21.4-7.29,20.286-9,17.766-9a3.277,3.277,0,0,0-2.772,1.332V-12.6ZM30.222-7.65A3.258,3.258,0,0,0,27.4-9.09,4.321,4.321,0,0,0,22.77-4.446c0,3.114,1.944,4.734,4.572,4.716A3.372,3.372,0,0,0,30.222-1.3L30.33,0H32.4V-8.874H30.294Zm-2.628.522c3.456,0,3.456,5.382,0,5.382a2.542,2.542,0,0,1-2.628-2.7A2.527,2.527,0,0,1,27.594-7.128Zm7.182-4.014v2.286H33.12v1.89h1.656v3.834c0,2.214,1.26,3.312,3.186,3.24A4.905,4.905,0,0,0,39.78-.27l-.612-1.872a2.509,2.509,0,0,1-1.062.27,1.1,1.1,0,0,1-1.152-1.26V-6.966H39.42v-1.89H36.972v-2.52Zm6.336,2.268v4.662c0,2.754,1.548,4.356,3.672,4.356A3.955,3.955,0,0,0,47.79-1.188L47.934.018H49.9V-8.874H47.718v4.536A2.335,2.335,0,0,1,45.45-1.854,2.117,2.117,0,0,1,43.308-4.23V-8.874ZM56.754-1.908a2.46,2.46,0,0,1-2.52-2.52,2.408,2.408,0,0,1,2.52-2.52,2.408,2.408,0,0,1,2.52,2.52A2.46,2.46,0,0,1,56.754-1.908ZM54.036,3.708V-1.044A3.575,3.575,0,0,0,56.988.216,4.331,4.331,0,0,0,61.47-4.428a4.439,4.439,0,0,0-4.554-4.644,3.525,3.525,0,0,0-2.88,1.422l-.144-1.224H51.84V3.708Z" transform="translate(418 147.032)" fill="#f7f6ff"/>
    <path id="Sustracción_1" data-name="Sustracción 1" d="M10,3H1A1,1,0,0,1,.293,1.293L2.258-.67A10.036,10.036,0,0,1,0-6.893a10.036,10.036,0,0,1,2.125-6.269A9.943,9.943,0,0,1,10-17a9.914,9.914,0,0,1,4.279.965A10.035,10.035,0,0,1,18.99-11.38,10.036,10.036,0,0,1,19.756-4.8,10.037,10.037,0,0,1,16.247.809,10.034,10.034,0,0,1,10,3ZM8.364-4.86,7.313-3.9A2.9,2.9,0,0,0,9.771-2.687,5.559,5.559,0,0,0,11.209-2.9a4.236,4.236,0,0,0,2.123-1.2,2.249,2.249,0,0,0,.476-2.15,2.264,2.264,0,0,0-2.53-1.74,9.135,9.135,0,0,0-1.263.1,6.3,6.3,0,0,1-.894.079c-.641,0-.99-.188-1.1-.592a.881.881,0,0,1,.09-.682,1.958,1.958,0,0,1,1.243-.78,2.657,2.657,0,0,1,.69-.091,2.058,2.058,0,0,1,1.384.462l1-.912a2.723,2.723,0,0,0-2.151-.913,5.118,5.118,0,0,0-1.314.188c-1.494.412-2.815,1.521-2.4,3.07A2.167,2.167,0,0,0,9-6.414,8.712,8.712,0,0,0,10.25-6.52a5.251,5.251,0,0,1,.8-.07c.749,0,1.177.239,1.309.731a1.015,1.015,0,0,1-.307,1.045,2.658,2.658,0,0,1-1.167.6,3.279,3.279,0,0,1-.846.116A2.015,2.015,0,0,1,8.364-4.86Z" transform="translate(388 149)" fill="#026bbc"/>
  </g>
</svg>
