<svg xmlns="http://www.w3.org/2000/svg" width="19.998" height="20.001" viewBox="0 0 19.998 20.001">
  <path id="Sustracción_1" data-name="Sustracción 1" d="M10,3H1A1,1,0,0,1,.293,1.293L2.258-.67A10.036,10.036,0,0,1,0-6.893a10.036,10.036,0,0,1,2.125-6.269A9.943,9.943,0,0,1,10-17a9.914,9.914,0,0,1,4.279.965A10.035,10.035,0,0,1,18.99-11.38,10.036,10.036,0,0,1,19.756-4.8,10.037,10.037,0,0,1,16.247.809,10.034,10.034,0,0,1,10,3ZM8.364-4.86,7.313-3.9A2.9,2.9,0,0,0,9.771-2.687,5.559,5.559,0,0,0,11.209-2.9a4.236,4.236,0,0,0,2.123-1.2,2.249,2.249,0,0,0,.476-2.15,2.264,2.264,0,0,0-2.53-1.74,9.135,9.135,0,0,0-1.263.1,6.3,6.3,0,0,1-.894.079c-.641,0-.99-.188-1.1-.592a.881.881,0,0,1,.09-.682,1.958,1.958,0,0,1,1.243-.78,2.657,2.657,0,0,1,.69-.091,2.058,2.058,0,0,1,1.384.462l1-.912a2.723,2.723,0,0,0-2.151-.913,5.118,5.118,0,0,0-1.314.188c-1.494.412-2.815,1.521-2.4,3.07A2.167,2.167,0,0,0,9-6.414,8.712,8.712,0,0,0,10.25-6.52a5.251,5.251,0,0,1,.8-.07c.749,0,1.177.239,1.309.731a1.015,1.015,0,0,1-.307,1.045,2.658,2.658,0,0,1-1.167.6,3.279,3.279,0,0,1-.846.116A2.015,2.015,0,0,1,8.364-4.86Z" transform="translate(0 17)" fill="#026bbc"/>
</svg>
